<svg width="72" height="72" viewBox="0 0 72 72" fill="none" xmlns="http://www.w3.org/2000/svg">
<path d="M13.3536 24.9178C14.4475 27.4265 17.1946 27.8279 19.4393 29.1073C21.6218 30.3513 23.4088 32.2834 23.7724 34.7389C24.9038 42.3799 21.9807 49.6917 23.7724 57.3807C24.4856 60.4413 28.8444 62.5491 31.5111 61.0129C35.4745 58.287 33.4066 52.5639 35.1276 47.6468C36.8187 42.8151 41.9367 43.2816 44.4402 47.2475C46.3235 50.2308 46.2267 64.2295 53.8089 61.0129C60.6297 57.1397 57.2243 42.9177 51.6258 37.7723C42.1978 29.1073 35.1926 43.141 34.0328 30.6088C33.5712 25.6204 35.1526 11.7819 27.6139 11.7819C23.7724 11.7819 25.68 19.5227 22.2577 20.7567C20.4059 21.4245 16.6804 20.071 14.8399 20.7567C13.2133 21.3627 12.73 23.4878 13.3536 24.9178Z" fill="#1D3413"/>
</svg>
